<svg width="15" height="14" viewBox="0 0 15 14" fill="none" xmlns="http://www.w3.org/2000/svg">
<path d="M10 14L5 12.3667L1.125 13.7667C0.847222 13.8704 0.590278 13.8412 0.354167 13.6792C0.118056 13.5171 0 13.3 0 13.0278V2.13889C0 1.97037 0.0520833 1.8213 0.15625 1.69167C0.260417 1.56204 0.402778 1.46481 0.583333 1.4L5 0L10 1.63333L13.875 0.233333C14.1528 0.12963 14.4097 0.158796 14.6458 0.320833C14.8819 0.48287 15 0.7 15 0.972222V11.8611C15 12.0296 14.9479 12.1787 14.8438 12.3083C14.7396 12.438 14.5972 12.5352 14.4167 12.6L10 14ZM9.16667 12.0944V2.99444L5.83333 1.90556V11.0056L9.16667 12.0944ZM10.8333 12.0944L13.3333 11.3167V2.1L10.8333 2.99444V12.0944ZM1.66667 11.9L4.16667 11.0056V1.90556L1.66667 2.68333V11.9Z" fill="#FFAC70"/>
</svg>
