<svg width="94" height="49" viewBox="0 0 94 49" fill="none" xmlns="http://www.w3.org/2000/svg">
<rect x="10.5" y="9.5" width="83" height="39" stroke="#E87523"/>
<path d="M23.888 40.32C22.1813 40.32 20.8907 39.84 20.016 38.88C19.1413 37.8987 18.704 36.5013 18.704 34.688V33.408H22.032V34.944C22.032 36.3947 22.64 37.12 23.856 37.12C24.4533 37.12 24.9013 36.9493 25.2 36.608C25.52 36.2453 25.68 35.6693 25.68 34.88C25.68 33.9413 25.4667 33.12 25.04 32.416C24.6133 31.6907 23.824 30.8267 22.672 29.824C21.2213 28.544 20.208 27.392 19.632 26.368C19.056 25.3227 18.768 24.1493 18.768 22.848C18.768 21.0773 19.216 19.712 20.112 18.752C21.008 17.7707 22.3093 17.28 24.016 17.28C25.7013 17.28 26.9707 17.7707 27.824 18.752C28.6987 19.712 29.136 21.0987 29.136 22.912V23.84H25.808V22.688C25.808 21.92 25.6587 21.3653 25.36 21.024C25.0613 20.6613 24.624 20.48 24.048 20.48C22.8747 20.48 22.288 21.1947 22.288 22.624C22.288 23.4347 22.5013 24.192 22.928 24.896C23.376 25.6 24.176 26.4533 25.328 27.456C26.8 28.736 27.8133 29.8987 28.368 30.944C28.9227 31.9893 29.2 33.216 29.2 34.624C29.2 36.4587 28.7413 37.8667 27.824 38.848C26.928 39.8293 25.616 40.32 23.888 40.32ZM31.6982 17.6H41.2983V20.8H35.2182V26.72H40.0503V29.92H35.2182V36.8H41.2983V40H31.6982V17.6ZM43.8032 17.6H48.8272L51.0672 33.632H51.1312L53.3712 17.6H58.3952V40H55.0672V23.04H55.0033L52.4432 40H49.4992L46.9392 23.04H46.8752V40H43.8032V17.6ZM64.222 17.6H68.99L72.638 40H69.118L68.478 35.552V35.616H64.478L63.838 40H60.574L64.222 17.6ZM68.062 32.576L66.494 21.504H66.43L64.894 32.576H68.062ZM74.8257 17.6H80.0097C81.7591 17.6 83.0711 18.0693 83.9457 19.008C84.8204 19.9467 85.2577 21.3227 85.2577 23.136V25.344C85.2577 27.1573 84.8204 28.5333 83.9457 29.472C83.0711 30.4107 81.7591 30.88 80.0097 30.88H78.3457V40H74.8257V17.6ZM80.0097 27.68C80.5857 27.68 81.0124 27.52 81.2897 27.2C81.5884 26.88 81.7377 26.336 81.7377 25.568V22.912C81.7377 22.144 81.5884 21.6 81.2897 21.28C81.0124 20.96 80.5857 20.8 80.0097 20.8H78.3457V27.68H80.0097Z" fill="#DD6812"/>
<rect width="21" height="21" rx="10.5" fill="#FFF4EB"/>
<path d="M4.725 16.275L12.6 12.6L16.275 4.725L8.4 8.4L4.725 16.275ZM10.5 11.55C10.2025 11.55 9.95312 11.4494 9.75187 11.2481C9.55062 11.0469 9.45 10.7975 9.45 10.5C9.45 10.2025 9.55062 9.95312 9.75187 9.75187C9.95312 9.55062 10.2025 9.45 10.5 9.45C10.7975 9.45 11.0469 9.55062 11.2481 9.75187C11.4494 9.95312 11.55 10.2025 11.55 10.5C11.55 10.7975 11.4494 11.0469 11.2481 11.2481C11.0469 11.4494 10.7975 11.55 10.5 11.55ZM10.5 21C9.0475 21 7.6825 20.7244 6.405 20.1731C5.1275 19.6219 4.01625 18.8737 3.07125 17.9287C2.12625 16.9837 1.37812 15.8725 0.826875 14.595C0.275625 13.3175 0 11.9525 0 10.5C0 9.0475 0.275625 7.6825 0.826875 6.405C1.37812 5.1275 2.12625 4.01625 3.07125 3.07125C4.01625 2.12625 5.1275 1.37812 6.405 0.826875C7.6825 0.275625 9.0475 0 10.5 0C11.9525 0 13.3175 0.275625 14.595 0.826875C15.8725 1.37812 16.9837 2.12625 17.9287 3.07125C18.8737 4.01625 19.6219 5.1275 20.1731 6.405C20.7244 7.6825 21 9.0475 21 10.5C21 11.9525 20.7244 13.3175 20.1731 14.595C19.6219 15.8725 18.8737 16.9837 17.9287 17.9287C16.9837 18.8737 15.8725 19.6219 14.595 20.1731C13.3175 20.7244 11.9525 21 10.5 21ZM10.5 18.9C12.845 18.9 14.8312 18.0862 16.4587 16.4587C18.0862 14.8312 18.9 12.845 18.9 10.5C18.9 8.155 18.0862 6.16875 16.4587 4.54125C14.8312 2.91375 12.845 2.1 10.5 2.1C8.155 2.1 6.16875 2.91375 4.54125 4.54125C2.91375 6.16875 2.1 8.155 2.1 10.5C2.1 12.845 2.91375 14.8312 4.54125 16.4587C6.16875 18.0862 8.155 18.9 10.5 18.9Z" fill="#E87523"/>
</svg>
