<svg width="49" height="40" viewBox="0 0 49 40" fill="none" xmlns="http://www.w3.org/2000/svg">
<path d="M28.3567 17.0575C26.0813 13.244 24.5545 9.00672 23.8632 4.58623C23.671 3.3421 23.5434 2.08826 23.4809 0.830081C23.4808 0.619394 23.4031 0.416622 23.2635 0.262833C23.1238 0.109043 22.9327 0.0157385 22.7289 0.00181638C22.525 -0.0121058 22.3237 0.0543959 22.1656 0.187852C22.0075 0.321307 21.9045 0.511736 21.8775 0.720572C21.1997 4.50046 20.3572 9.19475 18.0441 13.0129C16.549 12.729 15.041 12.5225 13.5258 12.3942C11.8887 12.2537 10.3986 12.1935 8.97213 12.2117C8.8633 12.2105 8.75532 12.2315 8.65434 12.2734C8.5534 12.3154 8.46148 12.3775 8.38386 12.4562C8.30624 12.5349 8.24448 12.6286 8.20209 12.732C8.15966 12.8353 8.13748 12.9463 8.13679 13.0586C8.13084 13.1641 8.14543 13.2698 8.17968 13.3694C8.21396 13.4691 8.26721 13.5606 8.3363 13.6387C8.40541 13.7168 8.48896 13.7798 8.58205 13.824C8.67515 13.8683 8.7759 13.8928 8.87835 13.8963L10.3915 14.004C12.4516 14.1482 14.5806 14.2978 16.6566 14.6136L16.9097 14.6538C16.3358 15.3809 15.6825 16.0374 14.9629 16.6103C14.9024 16.6559 14.8517 16.7136 14.8137 16.7802C14.7757 16.8467 14.7513 16.9205 14.742 16.9971C14.7328 17.0737 14.7388 17.1514 14.7597 17.2255C14.7806 17.2996 14.8161 17.3685 14.8638 17.428C14.9129 17.4973 14.9749 17.5559 15.0462 17.6002C15.1176 17.6445 15.1967 17.6737 15.2791 17.6861C15.3615 17.6985 15.4455 17.6939 15.5261 17.6724C15.6067 17.651 15.6824 17.6132 15.7487 17.5612C16.7173 16.7917 17.5904 15.9023 18.3485 14.9129C20.1377 15.2602 21.8945 15.7658 23.5995 16.4241C24.8334 16.9091 26.0262 17.4989 27.1656 18.1873C27.2639 18.2462 27.3728 18.2841 27.4856 18.2985C27.5985 18.3129 27.7129 18.3036 27.8222 18.2712C27.9838 18.2255 28.1309 18.1367 28.2487 18.0139C28.3718 17.8923 28.4498 17.7303 28.4696 17.5557C28.4893 17.3812 28.4494 17.205 28.3567 17.0575ZM25.056 14.3508C25.2082 14.6903 25.3693 15.0334 25.5427 15.3875C23.5852 14.4836 21.5436 13.7877 19.4493 13.3104C20.6882 11.2846 21.658 8.82058 22.419 5.80361C22.9481 8.754 23.834 11.6243 25.056 14.3471V14.3508Z" fill="#3C89B7"/>
<path d="M39.889 16.5787C39.8064 16.4452 39.6773 16.3461 39.5261 16.2999C39.375 16.2537 39.2119 16.2636 39.0677 16.3277C35.1023 17.9 30.9637 19.0065 26.7371 19.6244C26.663 19.6339 26.5916 19.6581 26.5272 19.6955C26.4627 19.7329 26.4065 19.7827 26.362 19.842C26.3174 19.9013 26.2854 19.9689 26.2679 20.0407C26.2503 20.1125 26.2476 20.187 26.2598 20.2599C26.2681 20.3351 26.2914 20.4079 26.3284 20.474C26.3654 20.5402 26.4154 20.5985 26.4754 20.6453C26.5354 20.6923 26.6043 20.7269 26.678 20.7472C26.7517 20.7675 26.8287 20.7731 26.9046 20.7637C29.2902 20.4955 31.6514 20.0457 33.9668 19.4179C32.8834 19.9086 31.7671 20.3249 30.6258 20.664C27.6773 21.5362 24.3002 21.9706 20.5917 21.9545C19.1292 21.9545 17.6433 21.8549 16.206 21.7659C15.626 21.7285 15.0514 21.6929 14.4661 21.6608C14.2465 21.6425 14.0285 21.7109 13.8597 21.851C13.691 21.9911 13.5852 22.1915 13.5655 22.4085C13.5524 22.5125 13.5602 22.6181 13.5884 22.7191C13.6166 22.8202 13.6647 22.9148 13.73 22.9974C13.7952 23.0801 13.8763 23.1492 13.9687 23.2009C14.061 23.2526 14.1627 23.2857 14.268 23.2985C15.3901 23.4763 16.521 23.5951 17.6559 23.6545C18.3439 23.6919 19.0734 23.715 19.8514 23.7222C21.7345 23.7563 23.6177 23.66 25.4872 23.4338C29.048 22.971 32.2954 22.0097 35.1412 20.5643C36.8094 19.7325 38.3623 18.6915 39.7612 17.467C39.8873 17.359 39.9696 17.2097 39.9932 17.0465C40.0165 16.8833 39.9795 16.7171 39.889 16.5787Z" fill="#3C89B7"/>
<path d="M9.11041 28.4872H9.52824C10.334 28.4872 10.8474 28.092 10.8474 27.4639C10.8474 26.8358 10.334 26.4407 9.52824 26.4407H8.1355V29.1525H9.11041V28.4872ZM9.11041 27.1471H9.46657C9.73517 27.1471 9.8645 27.2663 9.8645 27.4639C9.8645 27.6615 9.73715 27.7826 9.46657 27.7826H9.11041V27.1471Z" fill="#3C89B7"/>
<path d="M11.8065 28.4722H12.0594L12.5399 29.1525H13.5593L12.964 28.3157C13.1301 28.2391 13.2693 28.1177 13.3643 27.9664C13.4594 27.8151 13.5062 27.6404 13.499 27.4639C13.499 26.8358 12.9971 26.4407 12.2092 26.4407H10.8474V29.1525H11.8026L11.8065 28.4722ZM11.8065 27.1471H12.1528C12.4154 27.1471 12.5419 27.2663 12.5419 27.4639C12.5419 27.6615 12.4154 27.7826 12.1528 27.7826H11.8065V27.1471Z" fill="#3C89B7"/>
<path d="M15.5932 28.4629H14.3702V28.1069H15.4048V27.449H14.3702V27.1303H15.5478V26.4407H13.5593V29.1525H15.5932V28.4629Z" fill="#3C89B7"/>
<path d="M17.1144 28.2859H18.1589V27.5963H17.1144V27.1303H18.3051V26.4407H16.2712V29.1525H17.1144V28.2859Z" fill="#3C89B7"/>
<path d="M21.017 28.4629H19.3855V28.1069H20.766V27.449H19.3855V27.1303H20.9565V26.4407H18.3052V29.1525H21.017V28.4629Z" fill="#3C89B7"/>
<path d="M21.6948 26.4407H21.0168V29.1525H21.6948V26.4407Z" fill="#3C89B7"/>
<path d="M23.018 29.1525H23.7615V27.1508H24.4067V26.4407H22.3728V27.1508H23.018V29.1525Z" fill="#3C89B7"/>
<path d="M26.4268 27.8732C26.4268 28.2796 26.3047 28.4309 26.1067 28.4309C25.9086 28.4309 25.788 28.2796 25.788 27.8732V26.4407H25.0847V27.8987C25.0847 28.6933 25.4593 29.1525 26.101 29.1525C26.7425 29.1525 27.1186 28.6933 27.1186 27.8987V26.4407H26.4268V27.8732Z" fill="#3C89B7"/>
<path d="M28.6445 28.4722H28.8742L29.3007 29.1525H31.0603L31.233 28.681H32.1844L32.3571 29.1525H33.2204L32.1223 26.4407H31.29L30.1952 29.1469L29.6771 28.3157C29.8241 28.2387 29.9472 28.1171 30.0312 27.9658C30.1152 27.8146 30.1566 27.6401 30.1503 27.4639C30.1503 26.8358 29.7048 26.4407 29.0054 26.4407H27.7966V29.1525H28.6428L28.6445 28.4722ZM31.7061 27.3409L31.9496 28.0212H31.4626L31.7061 27.3409ZM28.6445 27.1545H28.9536C29.1867 27.1545 29.2989 27.2738 29.2989 27.4714C29.2989 27.6689 29.1885 27.7901 28.9536 27.7901H28.6445V27.1545Z" fill="#3C89B7"/>
<path d="M37.288 27.7975C37.288 26.957 36.6972 26.4407 35.8404 26.4407H34.5762V29.1525H35.8404C36.6972 29.1525 37.288 28.6381 37.288 27.7975ZM35.4454 28.4368V27.1508H35.798C35.9593 27.1508 36.1141 27.2185 36.2282 27.3391C36.3423 27.4597 36.4065 27.6233 36.4065 27.7938C36.4065 27.9643 36.3423 28.1279 36.2282 28.2485C36.1141 28.3691 35.9593 28.4368 35.798 28.4368H35.4454Z" fill="#3C89B7"/>
<path d="M40 28.4629H38.7763V28.1069H39.8101V27.449H38.7763V27.1303H39.9531V26.4407H37.9661V29.1525H40V28.4629Z" fill="#3C89B7"/>
<path d="M7.27783 31.8644L4.7683 36.1985L2.19202 31.8644H0V40H2.43016V36.419L4.14768 39.267H5.32217L7.03972 36.2911L7.06316 40H9.49153L9.46985 31.8644H7.27783Z" fill="#3C89B7"/>
<path d="M13.6098 31.8644L10.1694 40H12.8628L13.3907 38.5806H16.3822L16.9119 40H19.661L16.2188 31.8644H13.6098ZM14.1305 36.6065L14.8955 34.5656L15.6604 36.6065H14.1305Z" fill="#3C89B7"/>
<path d="M23.9185 33.9865C24.5866 33.9865 25.1025 34.3202 25.5406 34.8986L27.1188 33.4205C26.3881 32.4198 25.2429 31.8644 23.7917 31.8644C21.4084 31.8644 19.6611 33.5428 19.6611 35.9312C19.6611 38.3195 21.4084 40 23.7917 40C25.2429 40 26.3881 39.4445 27.1188 38.4438L25.5406 36.9657C25.1059 37.5441 24.5866 37.8759 23.9185 37.8759C22.8817 37.8759 22.1814 37.1217 22.1814 35.9243C22.1814 34.7265 22.8766 33.9865 23.9185 33.9865Z" fill="#3C89B7"/>
<path d="M30.4992 36.8606H33.9479V34.8868H30.4992V33.933H34.4257V31.8644H27.7966V40H34.5763V37.9313H30.4992V36.8606Z" fill="#3C89B7"/>
<path d="M37.966 31.8644H35.9321V40H37.966V31.8644Z" fill="#3C89B7"/>
<path d="M44.4039 32.0951L45.6651 31.5645L44.8937 29.8306L41.7925 31.1379L42.286 32.2476C40.5049 32.7522 39.322 34.1862 39.322 36.0241C39.322 38.3269 41.1851 40.0001 43.7286 40.0001C46.2725 40.0001 48.1356 38.3269 48.1356 36.0241C48.1336 33.9314 46.5929 32.3638 44.4039 32.0951ZM43.7286 37.9244C42.7581 37.9244 41.9778 37.2083 41.9778 36.0173C41.9778 34.826 42.7581 34.1099 43.7286 34.1099C44.6995 34.1099 45.4798 34.8276 45.4798 36.0173C45.4798 37.2067 44.6979 37.9244 43.727 37.9244H43.7286Z" fill="#3C89B7"/>
</svg>
