<svg width="49" height="36" viewBox="0 0 49 36" fill="none" xmlns="http://www.w3.org/2000/svg">
<path d="M30.6785 25.8786C27.2263 20.0931 24.91 13.6645 23.8612 6.95796C23.5696 5.07045 23.3759 3.16819 23.2812 1.25935C23.2811 0.939709 23.1632 0.632076 22.9513 0.398755C22.7394 0.165435 22.4495 0.0238776 22.1402 0.0027557C21.831 -0.0183662 21.5255 0.0825264 21.2857 0.284998C21.0458 0.487469 20.8895 0.776377 20.8486 1.09321C19.8202 6.82784 18.5421 13.9498 15.0328 19.7425C12.7644 19.3117 10.4767 18.9984 8.17789 18.8038C5.69421 18.5906 3.43341 18.4992 1.26929 18.5269C1.10418 18.5251 0.94036 18.5569 0.787162 18.6206C0.634014 18.6842 0.494562 18.7784 0.376798 18.8978C0.259034 19.0172 0.165339 19.1594 0.101023 19.3162C0.0366565 19.473 0.00300945 19.6414 0.00196729 19.8117C-0.00706479 19.9718 0.0150686 20.1322 0.0670279 20.2834C0.119037 20.4345 0.199829 20.5734 0.304641 20.6918C0.409503 20.8103 0.53625 20.9059 0.677488 20.973C0.818726 21.0401 0.971576 21.0774 1.12701 21.0827L3.42269 21.2461C6.54809 21.4648 9.77815 21.6919 12.9277 22.1709L13.3117 22.2319C12.441 23.335 11.4499 24.331 10.3581 25.2002C10.2664 25.2693 10.1894 25.357 10.1318 25.4579C10.0742 25.5588 10.0372 25.6708 10.0231 25.787C10.009 25.9032 10.0181 26.0211 10.0499 26.1336C10.0816 26.246 10.1354 26.3506 10.2078 26.4408C10.2823 26.5459 10.3764 26.6348 10.4846 26.702C10.5928 26.7692 10.7129 26.8135 10.8379 26.8324C10.9629 26.8512 11.0903 26.8441 11.2126 26.8116C11.3349 26.7791 11.4497 26.7217 11.5503 26.6429C13.0198 25.4754 14.3445 24.126 15.4946 22.6251C18.209 23.1519 20.8744 23.919 23.4611 24.9178C25.3332 25.6536 27.1428 26.5483 28.8714 27.5927C29.0206 27.6821 29.1857 27.7395 29.3569 27.7614C29.5281 27.7833 29.7018 27.7692 29.8676 27.7201C30.1127 27.6507 30.3359 27.516 30.5147 27.3296C30.7013 27.1451 30.8198 26.8994 30.8497 26.6345C30.8796 26.3697 30.819 26.1024 30.6785 25.8786ZM25.6709 21.7722C25.9018 22.2872 26.1461 22.8078 26.4093 23.345C23.4395 21.9737 20.342 20.9179 17.1647 20.1939C19.0442 17.1203 20.5156 13.3821 21.6702 8.80491C22.4728 13.2811 23.8169 17.6357 25.6709 21.7666V21.7722Z" fill="#EE712B"/>
<path d="M48.1746 25.1523C48.0494 24.9498 47.8534 24.7994 47.6241 24.7293C47.3948 24.6592 47.1474 24.6742 46.9287 24.7715C40.9125 27.1569 34.6337 28.8356 28.2214 29.773C28.1089 29.7875 28.0006 29.8242 27.9028 29.8809C27.805 29.9376 27.7198 30.0132 27.6522 30.1032C27.5846 30.1932 27.5361 30.2957 27.5094 30.4046C27.4828 30.5135 27.4787 30.6266 27.4972 30.7372C27.5097 30.8512 27.5451 30.9617 27.6013 31.062C27.6574 31.1624 27.7332 31.2508 27.8243 31.3219C27.9154 31.3931 28.0199 31.4456 28.1316 31.4764C28.2434 31.5072 28.3603 31.5157 28.4755 31.5014C32.0948 31.0947 35.677 30.4121 39.1897 29.4598C37.5462 30.2042 35.8525 30.8358 34.121 31.3502C29.6478 32.6735 24.5242 33.3325 18.8978 33.3082C16.679 33.3082 14.4247 33.157 12.2441 33.0219C11.3642 32.9652 10.4925 32.9112 9.60441 32.8626C9.27128 32.8348 8.94052 32.9386 8.68451 33.1511C8.4285 33.3637 8.26804 33.6677 8.23815 33.9968C8.21825 34.1547 8.23006 34.3149 8.27289 34.4682C8.31572 34.6215 8.3887 34.765 8.48769 34.8904C8.58668 35.0158 8.70971 35.1207 8.84976 35.1991C8.98981 35.2774 9.14411 35.3278 9.30386 35.3472C11.0063 35.6168 12.722 35.7972 14.4438 35.8873C15.4876 35.944 16.5943 35.9791 17.7748 35.9899C20.6317 36.0417 23.4888 35.8956 26.325 35.5524C31.7272 34.8503 36.654 33.3919 40.9716 31.199C43.5024 29.937 45.8585 28.3576 47.9807 26.4999C48.1721 26.3361 48.2969 26.1096 48.3327 25.8619C48.3681 25.6143 48.312 25.3622 48.1746 25.1523Z" fill="#EE712B"/>
</svg>
