<svg width="18" height="21" viewBox="0 0 18 21" fill="none" xmlns="http://www.w3.org/2000/svg">
<path d="M9 18.6667C10.2375 18.6667 11.2969 18.2097 12.1781 17.2958C13.0594 16.3819 13.5 15.2833 13.5 14V9.33333C13.5 8.05 13.0594 6.95139 12.1781 6.0375C11.2969 5.12361 10.2375 4.66667 9 4.66667C7.7625 4.66667 6.70312 5.12361 5.82187 6.0375C4.94062 6.95139 4.5 8.05 4.5 9.33333V14C4.5 15.2833 4.94062 16.3819 5.82187 17.2958C6.70312 18.2097 7.7625 18.6667 9 18.6667ZM6.75 15.1667H11.25V12.8333H6.75V15.1667ZM6.75 10.5H11.25V8.16667H6.75V10.5ZM9 21C7.78125 21 6.65156 20.6889 5.61094 20.0667C4.57031 19.4444 3.75 18.5889 3.15 17.5H0V15.1667H2.3625C2.30625 14.7778 2.27344 14.3889 2.26406 14C2.25469 13.6111 2.25 13.2222 2.25 12.8333H0V10.5H2.25C2.25 10.1111 2.25469 9.72222 2.26406 9.33333C2.27344 8.94444 2.30625 8.55556 2.3625 8.16667H0V5.83333H3.15C3.4125 5.38611 3.70781 4.96806 4.03594 4.57917C4.36406 4.19028 4.74375 3.85 5.175 3.55833L3.375 1.63333L4.95 0L7.36875 2.50833C7.89375 2.33333 8.42812 2.24583 8.97187 2.24583C9.51562 2.24583 10.05 2.33333 10.575 2.50833L13.05 0L14.625 1.63333L12.7687 3.55833C13.2 3.85 13.5891 4.18542 13.9359 4.56458C14.2828 4.94375 14.5875 5.36667 14.85 5.83333H18V8.16667H15.6375C15.6937 8.55556 15.7266 8.94444 15.7359 9.33333C15.7453 9.72222 15.75 10.1111 15.75 10.5H18V12.8333H15.75C15.75 13.2222 15.7453 13.6111 15.7359 14C15.7266 14.3889 15.6937 14.7778 15.6375 15.1667H18V17.5H14.85C14.25 18.5889 13.4297 19.4444 12.3891 20.0667C11.3484 20.6889 10.2187 21 9 21Z" fill="url(#paint0_linear_897_106)"/>
<defs>
<linearGradient id="paint0_linear_897_106" x1="9" y1="0" x2="9" y2="21" gradientUnits="userSpaceOnUse">
<stop stop-color="#FF7245"/>
<stop offset="1" stop-color="#CD3100"/>
</linearGradient>
</defs>
</svg>
