<svg width="50" height="50" viewBox="0 0 50 50" fill="none" xmlns="http://www.w3.org/2000/svg">
<rect width="50" height="50" rx="25" fill="#6DEEFF"/>
<path d="M29.3333 38L20.6667 34.9667L13.95 37.5667C13.4685 37.7593 13.0231 37.7051 12.6139 37.4042C12.2046 37.1032 12 36.7 12 36.1944V15.9722C12 15.6593 12.0903 15.3824 12.2708 15.1417C12.4514 14.9009 12.6981 14.7204 13.0111 14.6L20.6667 12L29.3333 15.0333L36.05 12.4333C36.5315 12.2407 36.9769 12.2949 37.3861 12.5958C37.7954 12.8968 38 13.3 38 13.8056V34.0278C38 34.3407 37.9097 34.6176 37.7292 34.8583C37.5486 35.0991 37.3019 35.2796 36.9889 35.4L29.3333 38ZM27.8889 34.4611V17.5611L22.1111 15.5389V32.4389L27.8889 34.4611ZM30.7778 34.4611L35.1111 33.0167V15.9L30.7778 17.5611V34.4611ZM14.8889 34.1L19.2222 32.4389V15.5389L14.8889 16.9833V34.1Z" fill="url(#paint0_linear_906_7)"/>
<defs>
<linearGradient id="paint0_linear_906_7" x1="25" y1="12" x2="25" y2="38" gradientUnits="userSpaceOnUse">
<stop stop-color="#FF7324"/>
<stop offset="1" stop-color="#B64100"/>
</linearGradient>
</defs>
</svg>
