<svg width="18" height="23" viewBox="0 0 18 23" fill="none" xmlns="http://www.w3.org/2000/svg">
<path d="M2.25 19.6117L4.47187 18.6929C4.28437 18.1377 4.11094 17.573 3.95156 16.9988C3.79219 16.4245 3.66562 15.8502 3.57187 15.2759L2.25 16.1948V19.6117ZM6.75 18.4057H11.25C11.5875 17.64 11.8594 16.7068 12.0656 15.6061C12.2719 14.5054 12.375 13.3808 12.375 12.2322C12.375 10.3371 12.0656 8.54245 11.4469 6.84831C10.8281 5.15418 10.0125 3.84769 9 2.92884C7.9875 3.84769 7.17187 5.15418 6.55312 6.84831C5.93437 8.54245 5.625 10.3371 5.625 12.2322C5.625 13.3808 5.72812 14.5054 5.93437 15.6061C6.14062 16.7068 6.4125 17.64 6.75 18.4057ZM9 12.6629C8.38125 12.6629 7.85156 12.438 7.41094 11.9881C6.97031 11.5383 6.75 10.9975 6.75 10.3658C6.75 9.73408 6.97031 9.1933 7.41094 8.74345C7.85156 8.29359 8.38125 8.06866 9 8.06866C9.61875 8.06866 10.1484 8.29359 10.5891 8.74345C11.0297 9.1933 11.25 9.73408 11.25 10.3658C11.25 10.9975 11.0297 11.5383 10.5891 11.9881C10.1484 12.438 9.61875 12.6629 9 12.6629ZM15.75 19.6117V16.1948L14.4281 15.2759C14.3344 15.8502 14.2078 16.4245 14.0484 16.9988C13.8891 17.573 13.7156 18.1377 13.5281 18.6929L15.75 19.6117ZM9 0C10.8562 1.37828 12.2578 3.12984 13.2047 5.25468C14.1516 7.37953 14.625 9.84894 14.625 12.6629L16.9875 14.2709C17.3062 14.4815 17.5547 14.7591 17.7328 15.1036C17.9109 15.4482 18 15.8119 18 16.1948V23L12.4031 20.7029H5.59687L0 23V16.1948C0 15.8119 0.0890625 15.4482 0.267187 15.1036C0.445312 14.7591 0.69375 14.4815 1.0125 14.2709L3.375 12.6629C3.375 9.84894 3.84844 7.37953 4.79531 5.25468C5.74219 3.12984 7.14375 1.37828 9 0Z" fill="url(#paint0_linear_897_104)"/>
<defs>
<linearGradient id="paint0_linear_897_104" x1="9" y1="0" x2="9" y2="23" gradientUnits="userSpaceOnUse">
<stop stop-color="#FF7245"/>
<stop offset="1" stop-color="#CD3100"/>
</linearGradient>
</defs>
</svg>
